<svg width="92" height="100" viewBox="0 0 92 100" fill="none" xmlns="http://www.w3.org/2000/svg">
<g clip-path="url(#clip0)">
<path d="M30.6603 77.6172C30.6603 78.0078 30.2352 78.3203 29.6993 78.3203C29.0894 78.3789 28.6643 78.0664 28.6643 77.6172C28.6643 77.2266 29.0894 76.9141 29.6253 76.9141C30.1798 76.8555 30.6603 77.168 30.6603 77.6172ZM24.9126 76.7383C24.7833 77.1289 25.1529 77.5781 25.7073 77.6953C26.1878 77.8906 26.7423 77.6953 26.8532 77.3047C26.964 76.9141 26.6129 76.4648 26.0585 76.2891C25.578 76.1523 25.042 76.3477 24.9126 76.7383ZM33.0813 76.4063C32.5454 76.543 32.1757 76.9141 32.2312 77.3633C32.2866 77.7539 32.7671 78.0078 33.3216 77.8711C33.8575 77.7344 34.2271 77.3633 34.1717 76.9727C34.1163 76.6016 33.6173 76.3477 33.0813 76.4063ZM45.2419 1.5625C19.6085 1.5625 0 22.1289 0 49.2188C0 70.8789 12.8999 89.4141 31.3256 95.9375C33.6912 96.3867 34.5228 94.8438 34.5228 93.5742C34.5228 92.3633 34.4674 85.6836 34.4674 81.582C34.4674 81.582 21.5306 84.5117 18.8138 75.7617C18.8138 75.7617 16.707 70.0781 13.6761 68.6133C13.6761 68.6133 9.44388 65.5469 13.9718 65.6055C13.9718 65.6055 18.5736 65.9961 21.1055 70.6445C25.1529 78.1836 31.9355 76.0156 34.5783 74.7266C35.0034 71.6016 36.2046 69.4336 37.5353 68.1445C27.2043 66.9336 16.7809 65.3516 16.7809 46.5625C16.7809 41.1914 18.1855 38.4961 21.1425 35.0586C20.662 33.7891 19.0911 28.5547 21.623 21.7969C25.4855 20.5273 34.375 27.0703 34.375 27.0703C38.0712 25.9766 42.0447 25.4102 45.9812 25.4102C49.9177 25.4102 53.8911 25.9766 57.5874 27.0703C57.5874 27.0703 66.4768 20.5078 70.3394 21.7969C72.8713 28.5742 71.3004 33.7891 70.8199 35.0586C73.7769 38.5156 75.588 41.2109 75.588 46.5625C75.588 65.4102 64.7026 66.9141 54.3716 68.1445C56.0719 69.6875 57.5134 72.6172 57.5134 77.207C57.5134 83.7891 57.458 91.9336 57.458 93.5352C57.458 94.8047 58.3081 96.3477 60.6552 95.8984C79.1364 89.4141 91.6667 70.8789 91.6667 49.2188C91.6667 22.1289 70.8753 1.5625 45.2419 1.5625ZM17.9637 68.9258C17.7235 69.1211 17.7789 69.5703 18.0931 69.9414C18.3888 70.2539 18.8138 70.3906 19.0541 70.1367C19.2944 69.9414 19.2389 69.4922 18.9247 69.1211C18.629 68.8086 18.204 68.6719 17.9637 68.9258ZM15.9677 67.3437C15.8384 67.5977 16.0232 67.9102 16.3928 68.1055C16.6885 68.3008 17.0581 68.2422 17.1875 67.9688C17.3169 67.7148 17.1321 67.4023 16.7624 67.207C16.3928 67.0898 16.0971 67.1484 15.9677 67.3437ZM21.9556 74.2969C21.6599 74.5508 21.7708 75.1367 22.1959 75.5078C22.621 75.957 23.1569 76.0156 23.3972 75.7031C23.6374 75.4492 23.5265 74.8633 23.1569 74.4922C22.7503 74.043 22.1959 73.9844 21.9556 74.2969ZM19.8488 71.4258C19.5531 71.6211 19.5531 72.1289 19.8488 72.5781C20.1445 73.0273 20.6435 73.2227 20.8837 73.0273C21.1794 72.7734 21.1794 72.2656 20.8837 71.8164C20.625 71.3672 20.1445 71.1719 19.8488 71.4258Z" fill="black"/>
</g>
<defs>
<clipPath id="clip0">
<rect width="91.6667" height="100" fill="white"/>
</clipPath>
</defs>
</svg>
