<svg width="106" height="116" viewBox="0 0 106 116" fill="none" xmlns="http://www.w3.org/2000/svg">
<path d="M23.3768 100.002H1.72506V33.2367H23.3768V100.002ZM12.5393 24.1293C5.61576 24.1293 0 18.6381 0 12.0085C4.95557e-08 8.82408 1.3211 5.77006 3.67268 3.51831C6.02425 1.26657 9.21367 0.0015564 12.5393 0.0015564C15.8649 0.0015564 19.0543 1.26657 21.4059 3.51831C23.7575 5.77006 25.0786 8.82408 25.0786 12.0085C25.0786 18.6381 19.4605 24.1293 12.5393 24.1293ZM104.413 100.002H82.8074V67.5008C82.8074 59.7551 82.6442 49.8219 71.5502 49.8219C60.2931 49.8219 58.568 58.2372 58.568 66.9428V100.002H36.9395V33.2367H57.7055V42.344H58.0085C60.8992 37.0984 67.9602 31.5625 78.4947 31.5625C100.408 31.5625 104.436 45.3798 104.436 63.3266V100.002H104.413Z" fill="#0077B5"/>
</svg>
