<svg width="92" height="100" viewBox="0 0 92 100" fill="none" xmlns="http://www.w3.org/2000/svg">
<path d="M12.8011 27.793C12.9086 26.6406 12.4968 25.4883 11.709 24.707L3.63446 14.082V12.5H28.7354L48.143 58.9258L65.2051 12.5H89.1423V14.082L82.2315 21.3086C81.6407 21.7969 81.3363 22.6172 81.4617 23.418V76.543C81.3363 77.3437 81.6407 78.1641 82.2315 78.6523L88.9812 85.8789V87.4609H55.018V85.8789L62.0183 78.4766C62.6986 77.7344 62.6986 77.5 62.6986 76.3672V33.4375L43.2374 87.3242H40.6055L17.9753 33.4375V69.5508C17.7783 71.0742 18.2438 72.5976 19.2285 73.6914L28.3236 85.7226V87.3047H2.54234V85.7422L11.6374 73.6914C12.6042 72.5976 13.0518 71.0547 12.8011 69.5508V27.793Z" fill="#03A87C"/>
</svg>
